<svg width="32" height="32" viewBox="0 0 32 32" fill="none" xmlns="http://www.w3.org/2000/svg">
<path d="M7 28C6.73478 28 6.48043 27.8946 6.29289 27.7071C6.10536 27.5195 6 27.2652 6 27V4.99995C6.00003 4.82618 6.04534 4.65542 6.13147 4.50449C6.21759 4.35357 6.34156 4.22769 6.49115 4.13927C6.64074 4.05084 6.8108 4.00293 6.98455 4.00024C7.1583 3.99756 7.32975 4.04019 7.482 4.12395L27.482 15.124C27.6388 15.2103 27.7695 15.3371 27.8606 15.4912C27.9517 15.6453 27.9997 15.821 27.9997 16C27.9997 16.1789 27.9517 16.3546 27.8606 16.5087C27.7695 16.6628 27.6388 16.7896 27.482 16.876L7.482 27.8759C7.33435 27.9572 7.16855 27.9999 7 28Z" fill="black"/>
</svg>
