<svg width="17" height="17" viewBox="0 0 17 17" fill="none" xmlns="http://www.w3.org/2000/svg">
<path d="M14.8525 13.1475C14.4622 12.7736 14.0824 12.389 13.7134 11.9941C13.4034 11.6791 13.2167 11.45 13.2167 11.45L10.8834 10.3358C11.8175 9.27632 12.3331 7.91245 12.3334 6.49996C12.3334 3.28413 9.71669 0.666626 6.50002 0.666626C3.28335 0.666626 0.666687 3.28413 0.666687 6.49996C0.666687 9.71579 3.28335 12.3333 6.50002 12.3333C7.96919 12.3333 9.30835 11.7833 10.3359 10.8841L11.45 13.2175C11.45 13.2175 11.6792 13.4041 11.9942 13.7141C12.3167 14.0166 12.7409 14.4258 13.1475 14.8533L14.2792 16.0133L14.7825 16.5516L16.55 14.7841L16.0117 14.2808C15.6959 13.9708 15.2742 13.5591 14.8525 13.1475ZM6.50002 10.6666C4.20252 10.6666 2.33335 8.79746 2.33335 6.49996C2.33335 4.20246 4.20252 2.33329 6.50002 2.33329C8.79752 2.33329 10.6667 4.20246 10.6667 6.49996C10.6667 8.79746 8.79752 10.6666 6.50002 10.6666Z" fill="white"/>
</svg>
