<svg width="20" height="18" viewBox="0 0 20 18" fill="none" xmlns="http://www.w3.org/2000/svg">
<path d="M19.548 4.83695L16.875 7.50995C16.6875 7.6976 16.4331 7.80306 16.1679 7.80316C15.9026 7.80325 15.6481 7.69796 15.4605 7.51045C15.2729 7.32295 15.1674 7.06858 15.1673 6.80331C15.1672 6.53804 15.2725 6.2836 15.46 6.09595L16.556 4.99995H15.1C13.9175 4.99996 12.7701 5.40144 11.8456 6.13866C10.9211 6.87588 10.2742 7.90515 10.011 9.05795C10.3038 10.1863 10.9628 11.1856 11.8847 11.899C12.8066 12.6124 13.9393 12.9997 15.105 13H16.607L15.46 11.853C15.2725 11.6653 15.1672 11.4109 15.1673 11.1456C15.1674 10.8803 15.2729 10.626 15.4605 10.4385C15.6481 10.2509 15.9026 10.1457 16.1679 10.1458C16.4331 10.1458 16.6875 10.2513 16.875 10.439L19.703 13.267C19.8552 13.4189 19.9542 13.6161 19.985 13.829C20.0177 14.0212 19.9938 14.2189 19.9163 14.3979C19.8387 14.5768 19.7107 14.7294 19.548 14.837L16.875 17.51C16.6875 17.6976 16.4331 17.8031 16.1679 17.8032C15.9026 17.8032 15.6481 17.698 15.4605 17.5105C15.2729 17.3229 15.1674 17.0686 15.1673 16.8033C15.1672 16.538 15.2725 16.2836 15.46 16.096L16.556 15H15.105C13.8877 15.0001 12.6898 14.6944 11.6215 14.1108C10.5531 13.5271 9.64861 12.6844 8.991 11.66C8.33857 12.6838 7.4385 13.5266 6.37403 14.1104C5.30955 14.6942 4.11505 15.0001 2.901 15H1C0.734784 15 0.48043 14.8946 0.292893 14.7071C0.105357 14.5195 0 14.2652 0 14C0 13.7347 0.105357 13.4804 0.292893 13.2928C0.48043 13.1053 0.734784 13 1 13H2.901C4.06203 13 5.18995 12.6131 6.10638 11.9002C7.0228 11.1873 7.67541 10.1893 7.961 9.06395C7.69048 7.90772 7.0369 6.87696 6.10647 6.13915C5.17605 5.40134 4.02346 4.99987 2.836 4.99995H1C0.734784 4.99995 0.48043 4.8946 0.292893 4.70706C0.105357 4.51953 0 4.26517 0 3.99995C0 3.73474 0.105357 3.48038 0.292893 3.29285C0.48043 3.10531 0.734784 2.99995 1 2.99995H2.836C4.06262 2.99993 5.26928 3.31052 6.34345 3.90278C7.41762 4.49503 8.32432 5.34965 8.979 6.38695C9.62864 5.34995 10.5312 4.49507 11.6019 3.90261C12.6726 3.31015 13.8763 2.99954 15.1 2.99995H16.608L15.46 1.85295C15.3672 1.76004 15.2935 1.64976 15.2433 1.52839C15.1931 1.40702 15.1673 1.27695 15.1673 1.1456C15.1673 1.01425 15.1933 0.884199 15.2436 0.762867C15.2939 0.641535 15.3676 0.531299 15.4605 0.438454C15.5534 0.34561 15.6637 0.271974 15.7851 0.221752C15.9064 0.17153 16.0365 0.145706 16.1679 0.145752C16.2992 0.145798 16.4293 0.171715 16.5506 0.222023C16.6719 0.272331 16.7822 0.346044 16.875 0.438954L19.703 3.26695C19.8552 3.41892 19.9542 3.61609 19.985 3.82895C20.0177 4.02125 19.9938 4.21891 19.9163 4.39788C19.8387 4.57684 19.7107 4.72939 19.548 4.83695Z" fill="white"/>
</svg>
